<?xml version="1.0" encoding="UTF-8" standalone="no"?>
<!-- Created with Inkscape (http://www.inkscape.org/) -->

<svg
   xmlns:dc="http://purl.org/dc/elements/1.1/"
   xmlns:cc="http://creativecommons.org/ns#"
   xmlns:rdf="http://www.w3.org/1999/02/22-rdf-syntax-ns#"
   xmlns:svg="http://www.w3.org/2000/svg"
   xmlns="http://www.w3.org/2000/svg"
   xmlns:sodipodi="http://sodipodi.sourceforge.net/DTD/sodipodi-0.dtd"
   xmlns:inkscape="http://www.inkscape.org/namespaces/inkscape"
   width="755.27002"
   height="759.72998"
   id="svg2"
   version="1.1"
   inkscape:version="0.48.5 r10040"
   sodipodi:docname="basicSphere5.svg"
   style="enable-background:new">
  <defs
     id="defs4">
    <inkscape:perspective
       sodipodi:type="inkscape:persp3d"
       inkscape:vp_x="0 : 526.18109 : 1"
       inkscape:vp_y="0 : 1000 : 0"
       inkscape:vp_z="744.09448 : 526.18109 : 1"
       inkscape:persp3d-origin="372.04724 : 350.78739 : 1"
       id="perspective3880" />
    <inkscape:path-effect
       effect="envelope"
       id="path-effect3878"
       is_visible="true"
       yy="true"
       xx="true"
       bendpath1="m -1461.5714,-232.85208 c 334.6967,-129.65307 505.58496,-104.86166 1197.43858,80"
       bendpath2="m -264.13282,-152.85208 0,699"
       bendpath3="m -1515.8571,546.14792 1251.72428,0"
       bendpath4="m -1515.8571,-152.85208 0,699"
       bendpath1-nodetypes="cc" />
    <filter
       id="filter4107"
       y="-0.15000001"
       height="1.3"
       x="-0.15000001"
       width="1.3"
       inkscape:menu-tooltip="Aquarelle paper effect which can be used for pictures as for objects"
       inkscape:menu="Textures"
       inkscape:label="Rough paper"
       color-interpolation-filters="sRGB">
      <feTurbulence
         id="feTurbulence4109"
         type="fractalNoise"
         baseFrequency="0.04"
         numOctaves="5"
         seed="0"
         result="result4" />
      <feDisplacementMap
         id="feDisplacementMap4111"
         in2="result4"
         in="SourceGraphic"
         yChannelSelector="G"
         xChannelSelector="R"
         scale="10"
         result="result3" />
      <feDiffuseLighting
         id="feDiffuseLighting4113"
         lighting-color="#e9e6d7"
         diffuseConstant="1"
         surfaceScale="2"
         result="result1"
         in="result4">
        <feDistantLight
           id="feDistantLight4115"
           azimuth="235"
           elevation="40" />
      </feDiffuseLighting>
      <feComposite
         id="feComposite4117"
         in2="result1"
         operator="in"
         in="result3"
         result="result2" />
      <feComposite
         id="feComposite4119"
         in2="result1"
         result="result5"
         operator="arithmetic"
         k1="1.7"
         k2="0"
         k3="0"
         k4="0" />
      <feBlend
         id="feBlend4121"
         in2="result3"
         in="result5"
         mode="normal" />
    </filter>
    <filter
       id="filter4163"
       inkscape:label="Specular light"
       inkscape:menu="ABCs"
       inkscape:menu-tooltip="Basic specular bevel to use for building textures"
       color-interpolation-filters="sRGB">
      <feGaussianBlur
         id="feGaussianBlur4165"
         result="result0"
         in="SourceAlpha"
         stdDeviation="6" />
      <feSpecularLighting
         id="feSpecularLighting4167"
         specularExponent="25"
         specularConstant="1"
         surfaceScale="10"
         lighting-color="#ffffff"
         result="result1"
         in="result0">
        <feDistantLight
           id="feDistantLight4169"
           azimuth="235"
           elevation="45" />
      </feSpecularLighting>
      <feComposite
         id="feComposite4171"
         in2="result1"
         k3="1"
         k2="1"
         operator="arithmetic"
         result="result4"
         in="SourceGraphic"
         k1="0"
         k4="0" />
      <feComposite
         id="feComposite4173"
         in2="SourceAlpha"
         operator="in"
         result="result2"
         in="result4" />
    </filter>
    <filter
       inkscape:collect="always"
       id="filter4175"
       x="-0.6247139"
       width="2.2494278"
       y="-1.1973686"
       height="3.3947372"
       color-interpolation-filters="sRGB">
      <feGaussianBlur
         inkscape:collect="always"
         stdDeviation="68.421061"
         id="feGaussianBlur4177" />
    </filter>
    <filter
       color-interpolation-filters="sRGB"
       inkscape:collect="always"
       id="filter4323-7-3"
       x="-0.44784689"
       width="1.8956938"
       y="-0.57956654"
       height="2.1591332">
      <feGaussianBlur
         inkscape:collect="always"
         stdDeviation="1.0367355"
         id="feGaussianBlur4325-8-3" />
    </filter>
    <filter
       color-interpolation-filters="sRGB"
       inkscape:collect="always"
       id="filter4323-9-9-0"
       x="-0.44784689"
       width="1.8956938"
       y="-0.57956654"
       height="2.1591332">
      <feGaussianBlur
         inkscape:collect="always"
         stdDeviation="1.0367355"
         id="feGaussianBlur4325-0-3-4" />
    </filter>
    <filter
       color-interpolation-filters="sRGB"
       inkscape:collect="always"
       id="filter4298-0-5"
       x="-0.046968568"
       width="1.0939372"
       y="-0.16250624"
       height="1.3250124">
      <feGaussianBlur
         inkscape:collect="always"
         stdDeviation="5.9417359"
         id="feGaussianBlur4300-9-2" />
    </filter>
    <filter
       color-interpolation-filters="sRGB"
       inkscape:collect="always"
       id="filter4323-9-9-6"
       x="-0.44784689"
       width="1.8956938"
       y="-0.57956654"
       height="2.1591332">
      <feGaussianBlur
         inkscape:collect="always"
         stdDeviation="1.0367355"
         id="feGaussianBlur4325-0-3-6" />
    </filter>
    <filter
       inkscape:collect="always"
       id="filter4562"
       x="-0.27770194"
       width="1.5554039"
       y="-0.15528753"
       height="1.3105751"
       color-interpolation-filters="sRGB">
      <feGaussianBlur
         inkscape:collect="always"
         stdDeviation="12.338094"
         id="feGaussianBlur4564" />
    </filter>
  </defs>
  <sodipodi:namedview
     id="base"
     pagecolor="#ffffff"
     bordercolor="#666666"
     borderopacity="1.0"
     inkscape:pageopacity="0.0"
     inkscape:pageshadow="2"
     inkscape:zoom="0.35"
     inkscape:cx="266.06414"
     inkscape:cy="638.30409"
     inkscape:document-units="px"
     inkscape:current-layer="layer3"
     showgrid="false"
     inkscape:window-width="1440"
     inkscape:window-height="851"
     inkscape:window-x="3"
     inkscape:window-y="2"
     inkscape:window-maximized="0"
     fit-margin-top="2.7755576e-17"
     fit-margin-left="0"
     fit-margin-right="0"
     fit-margin-bottom="0" />
  <metadata
     id="metadata7">
    <rdf:RDF>
      <cc:Work
         rdf:about="">
        <dc:format>image/svg+xml</dc:format>
        <dc:type
           rdf:resource="http://purl.org/dc/dcmitype/StillImage" />
        <dc:title></dc:title>
      </cc:Work>
    </rdf:RDF>
  </metadata>
  <g
     inkscape:groupmode="layer"
     id="layer3"
     inkscape:label="merge"
     style="display:inline"
     transform="translate(48.776822,-183.83458)">
    <g
       id="g3069"
       transform="translate(-42.857142,45.714285)">
      <path
         transform="matrix(0.97601253,0,0,1.0467197,1196.8906,734.05324)"
         d="m -485.71426,-209.06639 c 0,185.409884 -160.53791,335.71429 -358.57145,335.71429 -198.03349,0 -358.57139,-150.304406 -358.57139,-335.71429 0,-185.40989 160.5379,-335.7143 358.57139,-335.7143 198.03354,0 358.57145,150.30441 358.57145,335.7143 z"
         sodipodi:ry="335.71429"
         sodipodi:rx="358.57144"
         sodipodi:cy="-209.06639"
         sodipodi:cx="-844.28571"
         id="path4123"
         style="fill:#17a7d3;fill-opacity:1;stroke:#202424;stroke-width:5.54400015;stroke-miterlimit:4;stroke-opacity:1;stroke-dasharray:none;filter:url(#filter4163)"
         sodipodi:type="arc" />
      <path
         inkscape:connector-curvature="0"
         id="path2985"
         d="m 369.86607,167.76786 c -2.20733,0 -4.39631,0.0208 -6.59375,0.0625 -2.14794,0.41481 -4.41251,0.85441 -6.34375,1.21875 -4.05304,0.76463 -7.40613,1.38332 -9.0625,1.59375 -3.31266,0.42095 -6.50317,1.26689 -7.09375,1.875 -0.92525,0.95301 -9.36285,1.61187 -18.96875,2.09375 -4.80295,0.24089 -9.90602,0.43491 -14.5,0.53125 -3.15857,0.0662 -6.04671,0.0654 -8.46875,0 -35.1892,7.44347 -68.41167,20.31351 -98.75,37.6875 0.15345,0.90483 0.61026,1.65055 1.40625,2.1875 0.8686,0.58589 3.93046,2.2018 6.8125,3.59375 2.94184,1.42074 4.75465,2.95044 5.3125,4.25 0.55785,1.29957 -0.14593,2.36303 -2.25,2.84375 -3.25205,0.74302 -6.87045,-1.69626 -8.75,-5.90625 -0.64759,-1.45041 -2.53534,-2.13944 -4.46875,-2.09375 -1.93332,0.0457 -3.90791,0.83449 -4.6875,2.3125 -0.41065,0.7784 0.90486,3.90076 2.90625,6.9375 2.19084,3.32429 3.36047,6.66667 2.9375,8.40625 -0.38647,1.58914 -0.38089,3.76976 0,4.84375 0.6225,1.75273 0.74516,5.67819 0.53125,9.1875 -0.214,3.50931 -0.76654,6.61636 -1.5,6.78125 -0.75,0.16862 -1.10945,-0.77894 -0.78125,-2.09375 0.32811,-1.31478 -0.56019,-4.36571 -1.96875,-6.78125 -2.15605,-3.69739 -2.32379,-5.05325 -1.1875,-8.59375 1.06624,-3.32234 1.02927,-4.72091 -0.1875,-6.625 -1.01472,-1.58805 -2.23598,-1.78199 -5.4375,-0.40625 -0.71709,0.30777 -1.53109,0.68852 -2.46875,1.15625 -3.49654,1.74415 -7.71165,3.32289 -9.34375,3.5 -1.91381,0.20771 -2.98656,1.23318 -3.03125,2.84375 -0.045,1.62959 1.79955,2.39498 5.28125,2.21875 3.28262,-0.16616 7.30867,1.04059 9.1875,2.28125 1.24455,0.82182 1.54209,1.65086 0.0625,2.0625 -0.0441,0.0122 -0.079,0.0158 -0.125,0.0312 -1.0541,0.35046 -2.6726,1.4976 -3.6875,2.625 -1.05968,1.17707 -2.78785,2.80216 -3.84375,3.59375 -3.23128,2.42255 -2.26109,4.83863 2.9375,7.53125 1.51808,0.78634 2.82092,1.28764 4.0625,1.46875 1.69747,0.24713 3.2631,-0.0731 4.96875,-0.9375 3.63249,-1.84107 4.0641,-1.63768 3.9375,1.71875 -0.10421,2.76402 -0.82027,3.89603 -2.6875,4.3125 -2.95191,0.65841 -5.40006,4.98828 -4.71875,8.34375 0.26337,1.2967 -0.23227,2.05808 -2.09375,2.65625 -0.71646,0.22978 -1.62752,0.44527 -2.78125,0.65625 -7.13317,1.30449 -7.03379,1.40555 -4.09375,-2.96875 3.40329,-5.06356 2.46361,-8.95514 -2.28125,-9.3125 -4.19385,-0.31583 -4.921,-1.45337 -5.65625,-9.28125 -0.30617,-3.25832 -0.93958,-4.97559 -2.21875,-5.21875 -1.27917,-0.24316 -3.19142,0.98358 -6,3.65625 -6.1519,5.85415 -16.1575,7.78775 -25.40625,5.125 -0.49661,-0.14297 -1.18299,-0.23034 -1.9375,-0.3125 -7.4574,6.91938 -14.64122,14.13544 -21.46875,21.6875 1.59953,-0.1347 3.04395,-1.12525 5.9375,-3.375 1.77345,-1.37884 3.54373,-2.73921 5.3125,-4.125 1.00744,1.31692 2.0275,2.61918 3.03125,3.9375 4.07992,5.35822 3.73927,7.20952 -1.1875,6.78125 -3.72388,-0.3237 -10.34131,0.59507 -17.90625,2.28125 -17.059949,19.68521 -31.965807,41.30541 -44.312499,64.5313 2.197129,1.13808 4.000386,2.54569 5.125,4.15625 0.992781,1.4217 2.699631,2.41407 3.78125,2.1875 1.039268,-0.21768 2.569532,1.08824 3.5,2.9375 0.03776,0.0756 0.08885,0.14145 0.125,0.21875 1.127477,2.43121 2.327773,3.17161 3.75,2.28125 2.700407,-1.69046 5.709875,-0.6734 5.5625,1.875 -0.06294,1.09259 1.554598,3.49725 3.59375,5.34375 2.72702,2.46943 3.65821,4.53401 3.46875,7.8125 -0.20843,3.60643 0.57217,4.94653 4.125,7.09375 5.737999,3.46784 7.283989,9.19416 5.343749,19.34375 -2.30216,12.04241 -1.21369,22.61336 2.84375,28.125 0.95708,1.29993 2.82889,4.88398 4.15625,7.9375 1.61717,3.72044 3.78283,6.06324 6.59375,7.125 3.01116,1.13745 4.96079,3.39546 6.90625,7.96875 1.49047,3.50377 3.77164,7.70902 5.0625,9.375 1.29086,1.66596 2.2843,4.25823 2.21875,5.75 -0.0656,1.49178 1.33676,3.88462 3.09375,5.3125 1.75699,1.42787 3.1361,3.43729 3.09375,4.46875 -0.10529,2.56132 7.07041,8.72412 8.5625,7.375 0.80647,-0.72915 0.75029,-1.80638 -0.21875,-3.25 -0.79343,-1.18195 -2.68632,-5.04177 -4.1875,-8.59375 -1.50126,-3.55196 -4.13154,-8.47036 -5.84375,-10.9375 -1.74413,-2.513 -2.84839,-5.66974 -2.53125,-7.15625 0.43988,-2.06194 0.96078,-1.59072 2.4375,2.09375 1.04529,2.60773 3.58279,6.78849 5.625,9.28125 12.3456,15.06926 16.685,21.91563 16.8125,26.46875 0.0719,2.5734 0.21309,5.06777 0.28125,5.5625 0.20861,1.51607 6.57888,5.19029 16.34375,9.59375 0.48511,0.21876 0.93144,0.4294 1.375,0.625 6.6415,2.92786 8.86262,3.28307 12.25,2.15625 3.77879,-1.25699 4.80007,-0.95555 8.09375,2.28125 2.07917,2.04331 5.10009,3.97101 6.6875,4.3125 1.58741,0.3415 4.04765,0.88974 5.5,1.21875 3.27768,0.74244 8.72791,7.02299 8.65625,9.9375 -0.0297,1.20456 2.82816,4.04179 6.40625,6.40625 9.11109,6.02099 9.71723,6.22336 10.59375,2.78125 0.91123,-3.57801 2.40767,-3.83194 3.78125,-1.8125 1.37349,2.01944 2.61943,6.30796 3.03125,11.78125 0.38701,5.14328 0.0222,6.32784 -3.3125,11.28125 -5.35028,7.94601 -7.96882,15.64716 -6.625,19.5625 0.83947,2.44629 0.7033,3.64595 -0.71875,5.75 -1.45298,2.1499 -1.60584,3.35045 -0.75,6.34375 0.58186,2.035 1.69672,4.32056 2.46875,5.0625 0.77194,0.74195 3.89127,7.69412 6.9375,15.4375 6.66712,16.94765 6.84059,17.19535 12.90625,20.84375 2.64592,1.59145 5.8143,4.49905 7.03125,6.46875 2.04347,3.30772 2.1438,4.49606 1.375,15.40625 -0.45777,6.4969 -1.57497,15.22241 -2.46875,19.375 -0.89369,4.15259 -1.65846,10.8053 -1.6875,14.8125 -0.0369,5.17028 -0.85373,9.46104 -2.8125,14.71875 -1.51817,4.07497 -2.90951,9.79275 -3.09375,12.71875 -0.18424,2.92602 -0.8212,8.02922 -1.4375,11.34375 -0.97669,5.25295 -0.88803,6.2581 0.75,7.9375 2.13968,2.19385 1.59807,9.29101 -0.71875,9.375 -2.09661,0.076 -2.77576,2.43917 -1.5625,5.5 0.87247,2.20102 0.75016,3.28792 -0.59375,5.21875 -1.51592,2.17795 -1.52381,2.58832 -0.15625,4.0625 0.84091,0.90661 1.49042,2.45589 1.46875,3.4375 -0.0216,0.98163 1.11644,3.41868 2.5,5.40625 1.38347,1.98759 2.24358,4.39498 1.9375,5.375 -0.34232,1.09624 0.51949,2.10469 2.21875,2.59375 1.51898,0.4372 3.42833,1.539 4.25,2.46875 2.35962,2.66992 8.7118,3.69929 11.59375,2.0625 0.23828,-0.13537 0.4694,-0.29677 0.65625,-0.46875 1.24887,-1.14969 1.19179,-1.72582 -0.5625,-3.375 -0.11375,-0.10719 -0.24669,-0.19572 -0.375,-0.3125 -7.38727,-6.72389 -7.7756,-11.35742 -1.65625,-18.6875 1.0131,-1.21344 1.85232,-2.36673 2.5,-3.4375 2.11297,-3.49074 2.23362,-6.09878 0.21875,-7.0625 -0.0396,-0.0189 -0.0557,-0.0413 -0.0937,-0.0625 -1.81166,-1.0166 -1.76382,-4.5891 0.0625,-4.8125 0.0432,-0.006 0.11111,0.002 0.15625,0 2.39208,-0.0791 5.85794,-8.32488 5.3125,-12.59375 -0.43547,-3.40859 -0.22836,-3.67224 2.96875,-3.78125 2.90335,-0.099 3.61648,-0.73449 4.5625,-4.15625 0.91761,-3.31931 1.67988,-4.07087 4.25,-4.15625 7.53717,-0.25038 12.23762,-5.89728 10.9375,-13.15625 -0.54121,-3.02132 -0.31367,-3.25165 3.5625,-3.375 3.36805,-0.10719 4.71198,-0.94806 7.1875,-4.53125 1.67364,-2.42261 3.05531,-4.88097 3.0625,-5.46875 0.009,-0.58778 2.56421,-4.56997 5.6875,-8.84375 4.77274,-6.53053 5.69902,-8.54933 5.75,-12.65625 0.0369,-2.97465 0.74586,-5.71143 1.84375,-7 2.8824,-3.38315 10.21734,-8.02618 12.78125,-8.09375 3.67062,-0.0967 6.71228,-3.74691 9.5,-11.4375 3.45455,-9.52988 5.13738,-18.05811 4.46875,-22.5 -0.39024,-2.59278 0.0882,-4.6768 1.59375,-7.0625 5.04177,-7.97358 7.66603,-12.17859 9.03125,-15 1.36522,-2.82142 1.48836,-4.2507 1.53125,-6.78125 0.10035,-5.91474 -2.16748,-11.19027 -4.8125,-11.125 -1.01094,0.0249 -3.45724,-1.68957 -5.4375,-3.8125 -2.87053,-3.07751 -5.0637,-4.01586 -10.75,-4.59375 -3.92248,-0.39865 -7.10445,-1.17594 -7.09375,-1.75 0.0234,-1.25881 -6.55741,-5.45145 -8.4375,-5.375 -2.55933,0.10407 -7.55781,-3.97591 -7.03125,-5.75 0.6278,-2.11565 -3.57729,-13.23949 -6.25,-16.53125 -1.0345,-1.27414 -4.73246,-2.72758 -8.21875,-3.21875 -4.88334,-0.68803 -7.03908,-1.80355 -9.40625,-4.84375 -1.68982,-2.17035 -4.1019,-4.62024 -5.34375,-5.4375 -1.24194,-0.81725 -2.21483,-2.3893 -2.1875,-3.53125 0.0297,-1.23022 -0.93186,-2.03317 -2.34375,-1.9375 -1.31064,0.0889 -2.68386,-0.26415 -3.0625,-0.78125 -0.37864,-0.5171 -3.61345,-0.8516 -7.1875,-0.75 -1.15158,0.0327 -2.23483,0.004 -3.25,-0.0937 -2.58972,-0.25307 -4.69456,-0.93576 -5.875,-1.9375 -1.73235,-1.46996 -3.51078,-1.80762 -5.34375,-1.03125 -1.67166,0.70802 -3.05171,0.54346 -3.46875,-0.40625 -1.18709,-2.70333 -11.34198,3.86267 -13.15625,8.46875 -2.11486,5.36916 -2.94365,5.85396 -6.375,3.8125 -2.38983,-1.42177 -3.74065,-1.40335 -6.875,0.15625 -3.55229,1.76761 -4.16512,1.69091 -6.5625,-1.15625 -2.40503,-2.85619 -2.54515,-3.80747 -1.8125,-11.03125 0.57287,-5.64681 0.46376,-9.16677 -0.71875,-11.15625 -1.18251,-1.98948 -3.45687,-2.45318 -7.21875,-2.0625 -5.56941,0.5784 -5.70956,0.49442 -5.59375,-3.40625 0.0656,-2.20312 1.20065,-6.94205 2.53125,-10.53125 2.33921,-6.31006 2.34282,-6.57349 0.53125,-8.25 -1.17648,-1.08894 -3.04304,-1.25297 -5.0625,-0.4375 -4.37539,1.76671 -4.66658,2.07976 -6.5,7.65625 -1.36927,4.16464 -2.26385,5.05836 -6.125,6.1875 -6.01414,1.75871 -8.90799,0.10773 -11.53125,-6.78125 -1.0015,-2.63012 -1.51935,-4.31518 -1.625,-6.71875 -0.10574,-2.40357 0.19365,-5.52167 0.84375,-11.125 0.47126,-4.06087 0.95725,-8.14161 1.4375,-12.25 1.64504,-1.34466 3.2965,-2.71326 4.9375,-4.0625 4.30112,-3.53628 5.55996,-3.95574 10.0625,-3.3125 3.97805,0.56831 5.55901,0.23313 6.90625,-1.5 2.84401,-3.65863 7.18969,-4.96787 12.46875,-3.6875 6.24685,1.51504 7.11018,2.40765 7.65625,7.59375 0.61917,5.88004 4.69149,12.16848 6.90625,10.75 2.32041,-1.48627 2.37296,-6.28805 0.25,-16.53125 -0.58015,-2.79932 -1.14256,-5.61846 -1.71875,-8.4375 1.01661,-1.44929 2.04643,-2.91974 3.0625,-4.375 1.6766,-2.40118 5.37731,-7.30146 8.25,-10.90625 4.77067,-5.98634 5.19286,-7.00155 4.875,-11.71875 -0.21364,-3.17195 0.10012,-5.23292 0.78125,-5.3125 1.28115,-0.14966 5.68442,-7.05855 6.65625,-10.46875 0.36255,-1.27204 2.51721,-3.37692 4.78125,-4.65625 3.051,-1.72401 4.54493,-3.68083 5.8125,-7.65625 1.32305,-4.14939 2.89773,-6.18738 6.96875,-8.84375 2.28535,-1.49118 4.33494,-2.76646 5.15625,-3.25 0.21913,-0.12902 0.34533,-0.18361 0.375,-0.1875 0.14117,-0.0181 0.17611,1.43291 0.0937,3.21875 -0.17849,3.86719 2.5044,3.94949 5.5625,0.1875 1.15472,-1.42041 3.13886,-2.69031 4.40625,-2.8125 1.26748,-0.1222 2.61664,-1.04276 3.03125,-2.03125 0.4147,-0.98851 1.89958,-2.55919 3.28125,-3.5 1.65493,-1.12691 2.34695,-2.56127 2.03125,-4.1875 -0.55767,-2.87229 -2.40438,-3.04308 -4.09375,-0.375 -1.47357,2.32723 -8.49596,1.10399 -8.5625,-1.5 -0.0261,-1.02473 -4.4e-4,-4.03565 0.0625,-6.71875 0.0924,-3.70649 -0.46821,-5.09781 -2.375,-5.78125 -2.50304,-0.89716 -2.50552,-0.91685 -0.0937,-1.34375 1.32997,-0.23538 3.64402,0.69997 5.15625,2.0625 2.56337,2.30941 2.87381,2.27759 4.59375,-0.46875 1.01472,-1.62032 2.98487,-3.05488 4.375,-3.1875 1.39004,-0.13261 3.73187,-1.6075 5.21875,-3.25 3.73842,-4.12974 4.2649,-2.21575 1.34375,4.8125 -1.99671,4.80418 -2.88485,7.64452 -2.5,9.25 0.38476,1.60547 2.03264,1.99508 5.125,1.875 7.0597,-0.27414 8.06796,-0.13111 10.1875,1.3125 2.93662,2.00006 3.96744,-1.35768 2.375,-7.875 -1.0131,-4.14672 -2.23743,-6.08067 -4,-6.3125 -1.12622,-0.14814 -1.76281,-0.46758 -2.125,-1.71875 -0.36219,-1.25117 -0.44115,-3.42153 -0.46875,-7.3125 -0.0342,-4.81277 -0.27759,-9.03904 -0.53125,-9.3125 -0.25357,-0.27349 -1.83459,-2.09974 -3.53125,-4.0625 -1.69666,-1.96275 -3.85555,-3.49359 -4.78125,-3.40625 -2.16234,0.20403 -7.29985,-5.78369 -7.15625,-8.375 0.09,-1.62435 -1.56209,-5.22104 -3.5,-8.40625 -1.93791,-3.1852 -4.16505,-5.96251 -5.1875,-5.84375 -1.04017,0.12085 -2.20324,1.41432 -2.59375,2.84375 -0.32829,1.20146 -1.16204,2.25802 -2.21875,3.0625 -2.03205,1.54738 -4.87784,2.14711 -6.46875,0.84375 -1.07712,-0.88244 -2.02245,-3.28608 -2.09375,-5.34375 -0.071,-2.05766 -0.80405,-4.20045 -1.625,-4.75 -0.82086,-0.54955 -3.28195,-2.34181 -5.46875,-3.96875 -2.65545,-1.97563 -6.33225,-2.7251 -11.09375,-2.1875 -2.37643,0.26833 -4.74344,0.55834 -7.125,0.84375 -0.0324,2.48285 -0.062,4.94278 -0.0937,7.40625 -0.0521,4.06471 -0.57808,8.95839 -1.15625,10.875 -0.79406,2.63221 -0.52639,3.99612 1.09375,5.625 3.34179,3.35969 2.44327,9.10405 -2.0625,13.125 -1.88539,1.68251 -2.86453,2.57542 -3.3125,3.96875 -0.44806,1.39332 -0.38492,3.2876 -0.21875,6.9375 0.30221,6.63289 0.12933,7.46173 -1.65625,7.71875 -2.09499,0.30154 -6.18586,-7.31097 -6,-11.21875 0.16967,-3.56921 -1.94391,-5.97114 -4.90625,-5.5 -1.49659,0.23802 -6.61404,-1.20502 -11.375,-3.15625 -4.76096,-1.95122 -9.85467,-3.30556 -11.3125,-3.0625 -1.48949,0.24835 -3.18771,-0.94515 -3.84375,-2.71875 -0.64192,-1.73567 -1.88059,-3.00617 -2.75,-2.84375 -1.93395,0.3613 -1.73007,-6.16301 0.3125,-10.5 0.96625,-2.05165 4.34519,-6.07415 7.8125,-9.65625 3.46731,-3.5821 7.00694,-6.69937 8.28125,-6.9375 1.10832,-0.20711 2.82988,-1.77176 3.8125,-3.46875 1.624,-2.80494 1.76518,-2.79022 1.625,0.28125 -0.20456,4.48029 4.30855,7.26956 7.09375,4.40625 1.1326,-1.16437 2.67985,-2.16394 3.4375,-2.21875 1.05491,-0.0763 1.07088,0.17538 0.0312,1.03125 -2.17825,1.79418 -1.79928,6.10861 0.5,5.71875 1.15571,-0.19596 2.15248,-1.45733 2.21875,-2.84375 0.0665,-1.38641 1.16813,-2.97845 2.4375,-3.5 2.23805,-0.91951 3.12486,-2.28107 2.6875,-3.90625 -0.43736,-1.62518 -2.18776,-3.51535 -5.1875,-5.375 -1.97423,-1.22393 -3.95634,-2.44424 -5.9375,-3.65625 1.26109,-0.60559 2.52087,-1.20961 3.78125,-1.8125 5.81381,-2.78086 6.51286,-4.08164 6.15625,-11.84375 -0.10583,-2.30302 -0.20613,-4.61825 -0.3125,-6.9375 2.08564,-0.22514 4.16787,-0.44546 6.25,-0.65625 7.40319,-0.74949 9.31618,0.49839 7.34375,4.53125 -0.74272,1.5187 -1.1345,3.94629 -0.875,5.40625 0.60757,3.41915 5.09154,2.71805 6.96875,-1.09375 1.66141,-3.37363 3.94515,-4.15374 4.75,-1.625 0.50866,1.59784 -0.87581,4.50356 -2.84375,7.03125 -1.96785,2.52768 -4.52013,4.66962 -6.34375,4.78125 -3.89982,0.23876 -6.17914,3.44917 -5.4375,7.53125 0.42693,2.34983 1.48005,2.45083 6.25,0.71875 4.91607,-1.78518 6.42165,-1.55703 10.53125,1.6875 3.43449,2.71154 7.08017,4.69571 10.15625,5.75 3.07599,1.0543 5.57127,1.1995 6.75,0.1875 0.42999,-0.36906 0.68054,-0.91006 0.71875,-1.59375 0.0512,-0.91485 1.07361,-2.26871 2.25,-3.03125 1.76248,-1.14241 2.54738,-3.53073 2.4375,-6.03125 -0.10988,-2.50051 -1.11245,-5.13375 -3,-6.6875 -0.54058,-0.44493 -0.99901,-0.88761 -1.34375,-1.3125 -0.81951,-1.01169 -1.05344,-1.89696 -0.5,-2.28125 0.16949,-0.11769 0.37764,-0.1579 0.625,-0.15625 0.8606,0.006 2.11549,0.67623 3.125,1.78125 3.23748,3.54349 4.52966,3.12065 8.3125,-2.875 1.88782,-2.99219 2.83336,-4.48312 2.0625,-5.84375 -0.77086,-1.36063 -3.2678,-2.6074 -8.28125,-5.03125 -1.92415,-0.93024 -3.34814,-1.72234 -4.375,-2.5 -1.73676,-1.31759 -2.31613,-2.57645 -2.21875,-4.25 0.0997,-1.71524 -0.312,-3.03054 -1.78125,-4.4375 -1.46916,-1.40695 -3.99189,-2.88677 -8.09375,-4.9375 -1.95526,-0.97752 -4.71806,-1.51972 -6.125,-1.1875 -1.40694,0.33222 -4.9382,-1.50361 -7.875,-4.09375 -2.9368,-2.59015 -6.51617,-4.50195 -7.9375,-4.25 -1.42115,0.25195 -3.25153,0.10516 -4.0625,-0.3125 -1.03396,-0.53247 -1.18772,-2.93314 -0.75,-5.46875 0.43781,-2.53561 1.45644,-5.20876 2.75,-6.15625 1.13935,-0.83451 2.61712,-3.16382 3.28125,-5.1875 0.66413,-2.02368 2.58077,-4.53334 4.25,-5.5625 1.66914,-1.02916 3.87813,-3.24981 4.90625,-4.96875 1.02821,-1.71885 4.52286,-4.41656 7.75,-5.9375 3.22723,-1.52103 7.59472,-3.91835 9.71875,-5.375 5.16667,-3.54366 7.93683,-3.78311 7.21875,-0.6875 -0.33656,1.45058 -4.00278,3.83032 -8.5625,5.65625 -4.37962,1.75389 -8.20948,4.26774 -8.5,5.53125 -0.29052,1.26351 1.99703,4.65083 5.0625,7.53125 2.22231,2.0883 3.62629,3.33214 5.4375,3.96875 1.81121,0.63661 4.02819,0.64704 7.90625,0.3125 1.71383,-0.14847 3.75465,-0.37056 6.21875,-0.625 5.64359,-0.58276 9.30565,-0.72535 11.90625,-0.4375 2.60069,0.28786 4.14022,1.0338 5.53125,2.3125 5.04429,4.63703 8.55533,11.68256 7.59375,15.15625 -0.4611,1.66551 -0.0988,3.97536 0.84375,5.25 0.92211,1.24701 1.32769,3.10542 0.90625,4.15625 -0.42162,1.05085 -0.0649,3.26061 0.78125,4.90625 1.15616,2.24847 2.56583,2.61959 5.6875,1.5 2.71569,-0.97399 3.89544,-0.81304 3.375,0.46875 -0.43781,1.07836 -1.42464,2.00308 -2.1875,2.0625 -0.76286,0.0594 -2.59675,1.78003 -4.0625,3.8125 -0.8883,1.23181 -1.77029,2.45818 -2.65625,3.6875 0.84909,2.58112 1.68162,5.15491 2.53125,7.71875 1.40191,4.23033 3.2402,8.99782 4.0625,10.59375 0.8223,1.59593 1.82006,4.00961 2.21875,5.375 1.45298,4.97579 6.77578,9.89891 10.375,9.6875 2.00714,-0.11789 3.87076,0.60252 4.15625,1.5625 0.28549,0.95997 1.68321,1.66514 3.09375,1.59375 1.82659,-0.0924 3.18808,-1.7677 4.71875,-5.875 1.18188,-3.17164 3.31491,-7.59165 4.75,-9.8125 1.43509,-2.22085 2.67546,-4.8631 2.75,-5.875 0.25833,-3.50787 3.12995,-5.87616 9.78125,-7.90625 3.67637,-1.12207 8.94686,-4.21431 11.71875,-6.90625 2.7718,-2.69193 6.31484,-5.14916 7.875,-5.46875 0.2988,-0.0612 0.6912,-0.1537 1.15625,-0.25 1.96497,-0.40615 5.2037,-1.08409 8.03125,-1.65625 3.50706,-0.70965 8.57855,-3.34183 12.8125,-6.25 4.23395,-2.90819 7.62862,-6.08276 7.8125,-7.96875 0.12849,-1.31849 -0.2033,-3.40733 -0.75,-4.625 -1.13044,-2.51795 1.30741,-7.9834 3.53125,-7.90625 2.28984,0.0794 7.07777,-8.84842 6.9375,-12.96875 -0.0923,-2.71185 0.50724,-4.23434 2.03125,-5 3.09389,-1.55421 2.47338,-4.9711 -1.4375,-7.78125 -1.11381,-0.80032 -2.22895,-1.60808 -3.34375,-2.40625 0.98721,-1.00608 1.97849,-1.99485 2.96875,-3 1.63389,-1.65858 7.03857,-5.15197 12.03125,-7.6875 4.99259,-2.53562 9.86809,-4.96968 10.8125,-5.46875 1.1609,-0.61336 1.34708,-1.21969 0.59375,-2.84375 -5.04089,-1.29303 -10.12305,-2.4653 -15.25,-3.53125 -4.57014,0.38993 -8.56908,0.94423 -9.4375,1.34375 -1.16344,0.53532 -1.95325,-0.56018 -2.0625,-2.875 -0.0105,-0.22148 -0.0435,-0.44013 -0.0937,-0.65625 -18.94818,-3.25828 -38.44329,-4.96875 -58.3125,-4.96875 z m 157.3125,38.28125 c 0.96696,1.50979 2.08375,3.11794 3.28125,4.75 3.20907,4.37363 6.74248,8.49455 7.8125,8.65625 0.46442,0.0702 2.90549,-1.77595 5.59375,-4.15625 -5.46908,-3.23612 -11.03088,-6.31511 -16.6875,-9.25 z m -305.375,11.71875 c 1.20748,-0.0958 1.83421,0.51573 1.46875,1.53125 -0.40499,1.12547 -1.66515,2.24696 -2.8125,2.5 -1.14744,0.25303 -2.06929,-0.39455 -2.03125,-1.4375 0.0378,-1.04295 1.32945,-2.16446 2.84375,-2.5 0.19521,-0.0433 0.35875,-0.0801 0.53125,-0.0937 z m -34.8125,2.9375 c -3.695,2.34006 -7.30743,4.7741 -10.90625,7.25 2.29291,0.88008 5.44634,1.11015 8.625,0.375 2.29596,-0.53104 3.59787,-1.13606 4.21875,-2.125 0.30545,-0.48689 0.44915,-1.08072 0.46875,-1.78125 0.0198,-0.70494 -0.11298,-1.33136 -0.375,-1.875 -0.3867,-0.80205 -1.06562,-1.41152 -2.03125,-1.84375 z m 20.09375,11.5625 c 1.14285,-0.26226 3.35318,3.23285 3.28125,5.1875 -0.10619,2.88485 -2.15232,1.88327 -3.15625,-1.53125 -0.5592,-1.90182 -0.61874,-3.54294 -0.125,-3.65625 z m 26.71875,3.53125 c 0.552,-0.10986 0.98237,0.65822 0.9375,1.6875 -0.045,1.02927 -0.83626,2.00642 -1.75,2.1875 -0.91383,0.18107 -1.31286,-0.55576 -0.90625,-1.65625 0.40661,-1.10049 1.16666,-2.1089 1.71875,-2.21875 z m -11.5,2.375 c -1.0042,1.72202 -1.99706,3.44318 -3,5.15625 -1.65502,2.82659 -3.03782,6.26927 -3.09375,7.65625 -0.16014,3.97101 4.21283,9.47723 7.0625,8.9375 3.59734,-0.68134 7.29824,0.5059 7.21875,2.28125 -0.0369,0.81689 -1.59482,3.50965 -3.4375,5.96875 -1.11669,1.49036 -2.2276,2.95301 -3.34375,4.4375 -0.28837,-1.53522 -0.58556,-3.0523 -0.875,-4.59375 -0.77527,-4.12915 -1.2453,-4.43792 -4.53125,-2.75 -3.31445,1.70253 -4.08985,1.22212 -7.71875,-4.875 -4.66816,-7.84336 -4.87684,-9.47398 -1.3125,-10.25 1.49533,-0.32553 3.56004,-2.70353 4.875,-5.625 1.44713,-3.21509 3.35269,-5.32083 5.21875,-5.71875 0.98127,-0.20924 1.95677,-0.41864 2.9375,-0.625 z m -61.84375,1.1875 c -1.66542,1.28875 -3.32756,2.58769 -4.96875,3.90625 -0.57119,1.14212 -1.12669,1.6915 -2.1875,1.78125 -4.44012,3.62723 -8.77773,7.37727 -13.03125,11.21875 0.27168,-0.0225 0.54858,-0.0657 0.78125,-0.125 1.50423,-0.38318 3.43751,-0.0868 4.3125,0.625 0.8749,0.71182 2.33365,0.61623 3.25,-0.1875 0.91626,-0.80373 5.60546,-2.9084 10.40625,-4.6875 4.8007,-1.77907 9.35108,-4.19672 10.125,-5.375 2.45835,-3.74277 1.74519,-7.21334 -1.34375,-6.40625 -1.60035,0.41816 -4.54969,0.18934 -6.5625,-0.5 -0.28765,-0.0985 -0.53263,-0.17506 -0.78125,-0.25 z m 401.09375,12.125 c -3.08461,0.1015 -6.28081,0.57976 -9.1875,1.46875 -4.24636,1.29871 -9.22117,2.19756 -11.0625,1.96875 -1.84133,-0.22882 -3.83883,0.52533 -4.4375,1.6875 -1.26802,2.46142 -4.32273,5.12744 -9.21875,8.03125 -1.91597,1.13638 -4.65619,3.97748 -6.0625,6.3125 -1.07515,1.78524 -4.90834,5.43243 -9.375,9.03125 -1.37529,1.1087 -2.81932,2.20408 -4.25,3.25 -5.38193,3.93448 -8.1413,6.00226 -9.53125,7.71875 -1.38995,1.71649 -1.42225,3.07853 -1.34375,5.625 0.089,2.87502 0.0596,6.70472 -0.0937,8.5 -0.48205,5.65827 4.18952,7.68338 9.25,4.09375 1.23853,-0.87855 2.48361,-1.67655 3.46875,-2.21875 0.91446,-0.50289 1.61334,-0.8073 1.875,-0.78125 0.54355,0.0541 1.67362,3.27697 2.53125,7.125 0.85763,3.84803 1.13128,6.92742 0.59375,6.875 -0.53762,-0.0524 -1.73671,0.3052 -2.6875,0.78125 -1.30399,0.65287 -1.64538,-0.20575 -1.375,-3.53125 0.26094,-3.21007 -0.0946,-4.60839 -1.4375,-4.40625 -0.68176,0.10284 -1.6327,0.61109 -2.875,1.5 -3.39385,2.42838 -4.24081,4.64554 -3.3125,8.4375 1.28609,5.25332 -0.31078,7.96913 -4.46875,7.625 -2.86693,-0.23728 -4.59175,0.85471 -7.125,4.5625 -1.83324,2.68316 -4.7632,5.42605 -6.53125,6.09375 -3.12527,1.18023 -3.20461,1.07084 -2.28125,-3.625 0.61351,-3.12047 0.52824,-4.85142 -0.25,-4.90625 -1.09484,-0.0771 -3.47069,-4.13815 -5.46875,-8.59375 -1.99806,-4.45561 -3.62514,-9.31122 -3.25,-10.875 1.01337,-4.22412 -4.05677,-11.17299 -7.375,-10.03125 -4.26695,1.46821 -5.52892,6.49207 -3.6875,14.5625 0.87706,3.84395 2.2831,7.01268 3.125,7.0625 1.96956,0.11656 1.74286,3.04032 -0.46875,6.15625 -1.46152,2.05911 -2.06745,5.35173 -2.46875,13.53125 -0.0333,0.68753 3.49174,1.14392 7.84375,1.0625 5.6453,-0.10563 7.69206,0.40029 7.09375,1.6875 -0.46128,0.99226 -1.95672,1.73865 -3.3125,1.65625 -1.35587,-0.0824 -2.80783,0.58016 -3.21875,1.46875 -0.41101,0.88858 -2.35625,1.51295 -4.3125,1.40625 -4.44472,-0.24244 -5.15601,4.1774 -1.125,6.90625 3.85423,2.60913 5.87098,8.20768 4.90625,13.53125 -0.26544,1.46506 -0.54958,2.94694 -0.8125,4.40625 -3.19307,-0.24971 -6.37456,-0.49038 -9.5625,-0.71875 -5.26009,-0.37687 -10.02619,-0.25245 -10.59375,0.25 -0.76844,0.68029 -1.70816,6.35534 -2.3125,12.40625 -0.60434,6.05091 -0.87598,12.48367 -0.40625,14.84375 0.56064,2.81688 1.60308,4.06873 3.3125,4.125 1.36126,0.0448 2.98083,1.15703 3.625,2.46875 1.51655,3.08815 -1.2104,9.06829 -5.5625,12.21875 -2.91621,2.11106 -4.77576,6.44183 -6.28125,14.59375 -0.40778,2.20798 -2.17227,4.98343 -4.1875,6.59375 -3.84614,3.07338 -10.47002,11.31271 -10.53125,13.0625 -0.0216,0.61066 -1.61119,4.47303 -3.5,8.5625 -1.71446,3.71202 -2.56299,5.55319 -2.875,7.75 -0.3121,2.19681 -0.0674,4.75389 0.40625,9.78125 0.41119,4.36683 0.59338,7.05508 0.46875,9.28125 -0.12463,2.22616 -0.57734,3.99651 -1.375,6.46875 -1.25399,3.88598 -1.50109,6.14347 -0.8125,7.15625 0.55569,0.8172 0.99653,2.37026 0.96875,3.4375 -0.0279,1.06721 2.1348,5.83918 4.84375,10.59375 2.70895,4.75458 4.93188,9.55007 4.90625,10.65625 -0.0252,1.10618 2.98276,5.31037 6.71875,9.34375 6.69338,7.22606 6.88998,7.29154 12,6.3125 2.85228,-0.54649 7.59944,-0.83549 10.5625,-0.65625 3.41246,0.20639 7.04966,-0.62311 9.90625,-2.28125 2.48047,-1.43976 6.49444,-2.59088 8.9375,-2.53125 3.74003,0.0913 4.62502,0.6997 5.5625,3.6875 1.18305,3.77056 1.5398,3.96467 6.625,3.78125 3.36661,-0.12143 6.62841,3.10667 6.5625,6.5 -0.0207,1.05713 -0.5959,5.03097 -1.28125,8.8125 -1.19294,6.58143 -0.9749,9.46326 2.1875,14.8125 0.61845,1.04618 1.36489,2.15729 2.21875,3.4375 2.93554,4.40153 5.84512,13.79779 6.03125,19.40625 0.0378,1.12612 0.42267,4.3353 0.84375,7.125 0.62187,4.12045 0.34566,5.69521 -1.4375,8.5 -1.20732,1.89896 -2.76469,6.75807 -3.46875,10.78125 -1.25507,7.17186 -1.20314,7.51523 2.75,17.875 2.21764,5.81149 4.53001,14.16893 5.125,18.5625 0.59499,4.39356 2.17952,10.19335 3.53125,12.875 4.88523,9.69206 6.92324,15.28133 6.90625,19.125 -0.0252,5.78851 3.80799,8.73538 9.125,7.03125 2.22375,-0.71272 5.95319,-1.2261 8.28125,-1.15625 7.12076,0.21362 11.49556,-1.96193 17.03125,-8.46875 8.65528,-10.17354 10.29054,-12.90242 10.9375,-18.5625 0.52035,-4.55307 1.1494,-5.66028 4.15625,-7.09375 4.30759,-2.0536 5.37193,-5.93709 3.75,-13.90625 -1.13368,-5.5703 -1.08238,-5.93097 1.9375,-9.28125 1.7293,-1.9186 5.15123,-4.66966 7.59375,-6.09375 2.44243,-1.42409 5.04096,-3.91886 5.78125,-5.53125 0.84433,-1.83902 1.23124,-6.55744 1.15625,-11.4375 -0.0746,-4.88006 -0.5921,-9.90036 -1.5,-12.28125 -0.73831,-1.93603 -1.62212,-6.98318 -1.96875,-11.21875 -0.55416,-6.77361 -0.30467,-8.32456 2.0625,-12.75 3.10719,-5.80887 12.30117,-17.18764 19.3125,-23.84375 4.39922,-4.1763 9.24878,-13.03614 12.34375,-20.9375 3.09497,-7.90136 4.44204,-14.84138 1.75,-15.0625 -0.81906,-0.0673 -5.48109,0.53454 -10.34375,1.34375 -4.86275,0.8092 -9.51034,1.09321 -10.3125,0.625 -2.86406,-1.67151 -1.31054,-4.71976 3.1875,-6.21875 9.32779,-3.1085 20.8721,-8.3918 23,-10.625 1.20714,-1.26683 3.41901,-2.67918 4.90625,-3.125 3.38738,-1.01541 11.99286,-8.02353 12.03125,-9.8125 0.0126,-0.58696 0.99121,-2.40675 2.34375,-4.40625 0.33737,-0.49784 0.72068,-0.99693 1.09375,-1.5 3.09604,-4.17537 3.25093,-4.87123 1.9375,-7.78125 -0.49626,-1.09954 -1.53885,-2.5431 -2.71875,-3.8125 -0.70585,-0.76034 -1.44581,-1.46424 -2.15625,-2 -1.89609,-1.42985 -3.88985,-3.72426 -4.40625,-5.09375 -1.25075,-3.31636 -3.26319,-3.34867 -5.71875,-0.0937 -2.94579,3.9048 -7.9076,3.0285 -9.0625,-1.625 -0.50399,-2.03055 -1.53314,-3.76171 -2.28125,-3.84375 -0.83435,-0.0915 -2.8363,-3.54236 -4.53125,-7.1875 -1.69495,-3.64515 -3.07023,-7.49512 -2.65625,-8.3125 1.31945,-2.60504 4.87946,-0.50929 6.46875,3.75 2.38075,6.38024 10.95763,13.06185 14.6875,11.5625 2.3607,-0.94896 3.1158,-0.60385 4.4375,2 0.80881,1.59333 2.71605,3.03381 5.375,4.1875 4.04045,1.75195 9.74831,2.84774 15.71875,2.84375 2.43983,-0.002 4.90159,-0.002 7.34375,0 1.48193,2.11231 2.95026,4.21252 4.4375,6.3125 2.45385,3.46497 4.45998,7.18251 4.4375,8.28125 -0.0566,2.78157 3.94418,5.68335 6.90625,5.03125 2.30675,-0.50784 2.52174,0.12512 3.53125,9.25 0.59391,5.36802 1.96087,12.14695 3.03125,15.09375 1.07029,2.94682 3.48062,10.25532 5.375,16.1875 1.89429,5.93217 4.16876,11.13777 5.03125,11.625 0.93227,0.52665 3.02777,-0.94582 5.1875,-3.625 3.65209,-4.5303 5.03248,-9.62094 5.1875,-19.40625 0.0188,-1.17607 0.0797,-2.11491 0.21875,-2.90625 0.0439,-2.28336 0.0625,-4.58104 0.0625,-6.875 0,-90.38893 -34.26312,-172.70012 -90.40625,-234.46875 -1.54851,0.28469 -2.27572,-0.38604 -1.8125,-1.96875 -1.77096,-1.91856 -3.56184,-3.80981 -5.375,-5.6875 -0.76504,0.8912 -1.24427,2.40138 -1.5,4.65625 -0.49635,4.37518 -0.86531,4.71927 -4.125,4 -2.41825,-0.53361 -3.62479,-1.73443 -3.71875,-3.71875 -0.0924,-1.95048 -2.66741,-4.81942 -6.59375,-7.75 -3.92634,-2.93058 -9.18193,-5.92853 -14.6875,-8.125 -4.75889,-1.89862 -9.25917,-4.69414 -10,-6.21875 -0.97696,-2.01078 -4.55191,-3.38595 -9.03125,-3.90625 -1.67979,-0.19511 -3.49299,-0.27965 -5.34375,-0.21875 z m -127.71875,10.65625 c -1.40514,0.0563 -3.01446,0.27164 -4.8125,0.625 -4.62258,0.90844 -9.33525,1.22783 -10.46875,0.65625 -3.07276,-1.54943 -4.0232,2.21606 -2.09375,8.25 2.51724,7.87211 8.53823,9.29489 18.34375,4.59375 4.38996,-2.10466 6.15626,-3.82242 6.625,-6.5 0.93222,-5.32455 -1.5048,-7.86896 -7.59375,-7.625 z m -232.125,5.8125 c 0.5927,-0.11329 1.16079,0.26368 1.5,1.21875 0.27578,0.77671 -0.66865,2.4947 -2.09375,3.84375 -2.28589,2.16416 -2.50204,2.04744 -1.90625,-1.09375 0.43076,-2.27147 1.51217,-3.77993 2.5,-3.96875 z m 350.3125,10.03125 c 0.2177,-0.0332 0.43291,-0.0268 0.625,0 4.38923,0.61134 3.58114,3.02054 -2.375,7.34375 -5.37204,3.8993 -5.70898,4.51722 -5.96875,10.46875 -0.22659,5.19145 0.30223,6.78038 2.84375,9.0625 2.02486,1.81818 3.12658,4.29985 3.21875,7.21875 0.17246,5.45578 -0.36477,6.32606 -2.125,3.4375 -1.92505,-3.1589 -5.71377,-0.20394 -6.96875,5.4375 -0.99737,4.48363 -1.48233,6.72968 -2.28125,7.6875 -0.79892,0.95782 -1.88438,0.60974 -4.03125,-0.0937 -2.24228,-0.73478 -6.35122,-0.51215 -9.125,0.5 -6.03779,2.20333 -5.67256,2.25847 -8.6875,-1.03125 -2.15596,-2.35243 -2.20594,-2.63656 -0.34375,-2.53125 1.14933,0.065 4.04407,-0.71634 6.4375,-1.75 3.37182,-1.45624 4.70801,-3.09341 5.96875,-7.3125 0.89495,-2.99475 2.67164,-6.05401 3.9375,-6.78125 3.3649,-1.93325 4.07259,-5.3259 1.9375,-9.40625 -2.47292,-4.72586 -1.10785,-8.40245 4.125,-11.125 2.30288,-1.19816 5.67179,-4.2834 7.5,-6.84375 1.71431,-2.40097 3.78858,-4.04891 5.3125,-4.28125 z m 36.90625,3.34375 c 1.49661,-0.0331 3.70995,0.37351 5.84375,1 3.41408,1.0024 6.60194,2.56965 6.25,3.65625 -0.35185,1.08594 -2.15695,1.3713 -4.28125,0.71875 -2.0245,-0.62193 -4.07829,-0.34105 -4.5625,0.59375 -1.24446,2.40286 -3.47536,1.74166 -4.65625,-1.40625 -0.55227,-1.4721 -0.70441,-3.26835 -0.34375,-3.96875 0.20178,-0.39185 0.85203,-0.57389 1.75,-0.59375 z m -429.5625,1.5625 c 0.76241,-0.0199 1.31241,0.56917 1.28125,1.40625 -0.0351,0.95666 -0.53275,1.83643 -1.09375,1.96875 -0.56091,0.1323 -1.29168,-0.47648 -1.625,-1.34375 -0.33332,-0.86727 0.16382,-1.74703 1.09375,-1.96875 0.11623,-0.0277 0.23483,-0.0597 0.34375,-0.0625 z m 87.21875,12 c -0.1008,-0.0116 -0.19844,0.0128 -0.3125,0.0312 -0.91257,0.14734 -1.73787,1.53005 -1.8125,3.0625 -0.15142,3.10761 2.12977,2.18469 2.9375,-1.1875 0.24902,-1.03934 -0.10689,-1.82502 -0.8125,-1.90625 z m -124.6875,5.5625 c 0.75008,-0.0268 1.54887,0.45758 1.84375,1.1875 0.34897,0.8636 -0.63702,1.8216 -2.28125,2.21875 -1.64405,0.39713 -2.58381,-0.10725 -2.15625,-1.15625 0.41299,-1.01329 1.44304,-2.01423 2.28125,-2.21875 0.10477,-0.0256 0.20535,-0.0274 0.3125,-0.0312 z m 441.46875,4.96875 c 0.54076,0.0731 0.89657,0.88827 0.8125,1.8125 -0.0836,0.92422 -0.88522,1.58814 -1.78125,1.46875 -0.89594,-0.1194 -1.25175,-0.93457 -0.8125,-1.8125 0.43925,-0.87794 1.24049,-1.54186 1.78125,-1.46875 z m -422.28125,13.96875 c 0.2576,0.008 0.46676,0.10399 0.59375,0.28125 0.33863,0.47269 -0.31924,1.00317 -1.46875,1.1875 -1.27036,0.20374 -1.52112,-0.11768 -0.625,-0.84375 0.50685,-0.41064 1.07066,-0.63824 1.5,-0.625 z m 318.25,0.0312 c -1.56844,0.094 -3.731,1.12827 -6.15625,3.03125 -3.34835,2.62732 -4.23189,4.23389 -4.6875,8.71875 -0.30698,3.0223 -0.33275,6.11766 -0.0937,6.90625 0.47638,1.57189 7.00127,0.32372 9.84375,-1.875 0.88884,-0.68728 1.93255,-3.79503 2.6875,-7.09375 0.75495,-3.29873 1.19262,-6.78599 0.78125,-8.1875 -0.31754,-1.0818 -1.1551,-1.57307 -2.375,-1.5 z m -271.34375,29.9375 c 0.21743,0.003 0.52059,0.2608 0.875,0.78125 0.643,0.9441 0.91772,2.13642 0.59375,2.65625 -0.32397,0.51984 -0.88772,0.49929 -1.25,-0.0312 -0.36228,-0.53049 -0.63709,-1.7228 -0.59375,-2.65625 0.0238,-0.51457 0.15757,-0.75308 0.375,-0.75 z m 31.71875,17.5 c 0.91398,0.007 1.77525,0.59748 3.21875,1.625 2.92943,2.08513 3.7685,3.54027 2.40625,4.40625 -1.36225,0.86598 -4.8982,1.12312 -10.71875,0.90625 -1.65529,-0.0617 -3.30995,-0.1007 -4.96875,-0.15625 1.6535,-1.26045 3.28697,-2.51849 4.9375,-3.78125 2.69883,-2.0648 3.94988,-3.00919 5.125,-3 z m -137.999999,0.0625 c -0.146275,-8.1e-4 -0.280009,0.0306 -0.4375,0.0625 -2.258821,0.45793 -3.071789,2.23639 -1.75,3.90625 1.269727,1.60419 3.735268,0.29708 3.875,-2.0625 0.06688,-1.13013 -0.663573,-1.90055 -1.6875,-1.90625 z m 432.718749,5.2188 c 0.44208,-0.0432 1.04579,0.35684 1.96875,1.21875 1.23601,1.15428 2.56596,3.05549 2.9375,4.21875 0.37154,1.16326 3.128,4.14041 6.15625,6.59375 4.19673,3.4 5.48051,5.26074 5.34375,7.84375 -0.0986,1.86384 0.9807,6.06116 2.40625,9.3125 1.42555,3.25135 3.03482,7.31806 3.59375,9.0625 1.44965,4.52494 4.26474,4.1724 6.5625,-0.8125 1.49587,-3.24526 1.68402,-4.48099 0.71875,-5.09375 -1.92415,-1.22145 -1.34734,-4.92447 1.03125,-6.53125 4.23458,-2.86049 5.91191,-1.37718 7,5.9375 1.14043,7.66587 2.87358,10.88296 7.21875,13.75 1.99887,1.31885 3.51065,1.48921 4.96875,0.53125 2.9814,-1.95856 6.21276,1.15423 5.3125,5.09375 -0.52584,2.30107 -0.15259,3.02488 1.5625,3.1875 1.5134,0.1435 2.2586,-0.73599 2.34375,-2.75 0.17624,-4.17036 4.31219,-6.73289 5.09375,-3.15625 0.31318,1.43289 -0.20157,5.28533 -0.96875,9.03125 -0.76718,3.74592 -1.80585,7.3691 -2.625,8.40625 -1.00735,1.27533 -5.74263,1.37143 -11.1875,0.6875 -5.44487,-0.68392 -11.58201,-2.14809 -15.4375,-4.03125 -6.82996,-3.33594 -10.92453,-4.94854 -13.46875,-4.78125 -2.54422,0.16728 -3.54054,2.11043 -4.1875,5.90625 -0.64939,3.81037 -1.83451,3.92724 -6.71875,0.625 -2.25666,-1.52574 -5.21257,-4.03454 -6.5625,-5.59375 -1.35002,-1.55922 -3.87197,-2.94625 -5.625,-3.0625 -4.26066,-0.28254 -8.17202,-4.65615 -6.5,-7.3125 1.37718,-2.18808 0.84989,-9.12997 -0.875,-11.46875 -0.21724,-0.29458 -0.68713,-0.55368 -1.375,-0.75 -2.85282,-0.81325 -9.30658,-0.79095 -15.6875,-0.15625 -6.38101,0.63471 -12.70965,1.89116 -15.3125,3.40625 -5.3278,3.1013 -11.70716,3.79071 -12.59375,1.3125 -0.61288,-1.71313 1.93824,-3.23382 5.25,-3.09375 3.39745,0.14369 8.7391,-6.47592 9.78125,-12.1875 0.6582,-3.60729 1.83279,-5.35241 4.6875,-6.96875 2.17727,-1.23277 4.28502,-3.79691 4.96875,-6.03125 1.03873,-3.39383 1.78543,-3.83388 5.625,-3.3125 2.4276,0.32965 6.25287,-0.52012 8.5,-1.875 1.36198,-0.82114 2.72988,-1.61921 4.09375,-2.4375 0.69884,1.35116 1.39248,2.6854 2.09375,4.03125 0.15331,0.29407 0.31544,0.58118 0.46875,0.875 1.41144,2.70406 5.2444,7.52079 8.53125,10.6875 3.78499,3.64664 6.02969,6.90055 6.125,8.90625 0.12993,2.7339 -0.32229,3.03193 -3.3125,2.28125 -4.01096,-1.00692 -7.07304,2.25867 -4.9375,5.21875 0.68463,0.94893 2.51174,2.3166 4.09375,3.03125 2.37715,1.07386 3.00056,0.74559 3.59375,-1.875 0.39474,-1.74399 1.90318,-4.17239 3.34375,-5.40625 1.44057,-1.23388 2.68652,-3.29643 2.75,-4.5625 0.0638,-1.26608 0.58204,-2.26572 1.15625,-2.21875 2.36996,0.19383 0.92521,-3.38197 -3.09375,-7.78125 -7.12498,-7.79918 -10.66758,-13.79158 -9.84375,-16.40625 0.30936,-0.98181 0.58917,-1.4568 1.03125,-1.5 z m 54.34375,1.5625 c 1.72143,0.0715 3.36485,1.85169 4.96875,5.3125 2.1208,4.57625 2.72191,5.02057 4.8125,3.65625 1.31217,-0.85627 2.46863,-2.86849 2.5625,-4.46875 0.18271,-3.11451 2.24803,-4.58769 5.84375,-4.15625 1.73244,0.20787 1.9126,0.65584 0.84375,2 -2.69951,3.39489 -1.61424,6.73944 3.90625,11.96875 3.45661,3.27432 5.4109,6.08896 5.15625,7.5 -0.61719,3.41925 -8.97272,2.81042 -15.28125,-1.125 -4.97002,-3.10043 -5.74328,-3.22209 -11.03125,-1.46875 -5.44811,1.80649 -8.25903,2.74098 -9.78125,2.625 -1.52222,-0.11599 -1.74032,-1.28283 -2,-3.5625 -0.48349,-4.24438 1.26011,-8.88238 5.84375,-15.34375 1.42336,-2.00648 2.81736,-2.99311 4.15625,-2.9375 z m -335.5,3.90625 c 0.65667,-0.0315 1.52212,0.044 2.65625,0.21875 1.24257,0.19149 2.47807,0.39847 3.71875,0.59375 -0.95106,1.40519 -1.8926,2.78806 -2.84375,4.1875 -3.55453,5.22953 -3.64275,5.24035 -4.6875,0.25 -0.81836,-3.90905 -0.81375,-5.1555 1.15625,-5.25 z m 394.0625,1.875 c 1.06375,-0.0644 2.15112,-0.0227 3.25,0.125 3.01422,0.40502 3.20034,2.94491 0.28125,3.875 -5.9655,1.90078 -5.78957,8.98774 0.4375,15.34375 3.36517,3.43492 3.8608,4.45481 2.375,5.0625 -2.02351,0.82764 -2.74023,5.64162 -1.09375,7.34375 0.56199,0.58099 0.91222,2.96155 0.8125,5.28125 -0.1338,3.1115 -0.79989,4.35713 -2.59375,4.8125 -3.15737,0.80149 -3.00379,0.88492 -6.59375,-2.3125 -1.69774,-1.51212 -3.21724,-2.98493 -3.40625,-3.25 -0.18901,-0.26506 0.36269,-2.79317 1.25,-5.65625 1.51664,-4.89418 1.46581,-5.50456 -1,-9.8125 -1.44255,-2.52014 -3.06378,-6.95903 -3.59375,-9.875 -0.87868,-4.83537 -0.73425,-5.53806 1.6875,-7.75 2.05383,-1.87586 4.99624,-2.99441 8.1875,-3.1875 z m -404.0625,0.9375 c 0.66036,-0.0745 0.29962,0.79373 -1.0625,3.84375 -1.10221,2.46791 -1.70064,5.61421 -1.40625,7.34375 0.59409,3.49214 -1.52931,6.49027 -2.25,3.1875 -0.40427,-1.853 0.004,-5.12767 0.78125,-8.0625 0.77734,-2.93482 1.92512,-5.52773 2.9375,-5.96875 0.44242,-0.19271 0.77988,-0.31891 1,-0.34375 z m 278.78125,2.875 c -1.34517,-0.0956 -2.14986,1.5268 -2.84375,5.78125 -0.83291,5.1062 -1.18879,8.01032 -1.03125,9.59375 0.15745,1.58343 0.82533,1.84655 2.125,1.65625 2.08222,-0.30487 2.42754,-1.31287 2.96875,-8.59375 0.52035,-7.00156 0.35859,-8.32543 -1.21875,-8.4375 z m 151.25,4.0625 c 0.10727,-0.002 0.20118,0.0159 0.3125,0.0312 0.84496,0.11635 1.5035,1.21926 1.4375,2.46875 -0.12049,2.28123 -2.41457,2.79653 -3.59375,0.8125 -0.86321,-1.4524 0.23463,-3.28866 1.84375,-3.3125 z m -106.53125,32.3125 c -0.89873,-0.0774 -1.38234,0.6008 -1.0625,1.46875 0.31984,0.86795 1.01985,1.60991 1.5625,1.65625 0.54256,0.0464 1.02626,-0.60056 1.0625,-1.4375 0.036,-0.83694 -0.66368,-1.61016 -1.5625,-1.6875 z m 27.21875,35.21875 c 1.09607,-0.23668 3.47325,3.15019 5.625,8.4375 1.78442,4.38471 4.08119,9.17287 5.09375,10.6875 1.01265,1.51463 1.77135,4.32765 1.71875,6.25 -0.0521,1.92235 1.19254,5.7169 2.75,8.4375 3.12536,5.45961 5.15402,9.34011 6.4375,12.59375 1.28339,3.25364 1.82299,5.90111 1.96875,8.8125 0.165,3.29886 0.0585,5.9617 -0.25,5.9375 -0.3086,-0.0242 -2.54934,-2.66739 -4.96875,-5.875 -2.41941,-3.20759 -4.3674,-6.67259 -4.34375,-7.6875 0.0234,-1.01492 -0.91907,-3.35241 -2.09375,-5.1875 -1.17459,-1.83509 -2.55325,-6.13191 -3.03125,-9.59375 -0.478,-3.46183 -1.55635,-7.46421 -2.40625,-8.875 -0.82868,-1.37556 -2.63728,-6.39121 -4.21875,-11.375 -1.58147,-4.98379 -2.94312,-9.95194 -2.90625,-11.0625 0.0313,-0.94292 0.25964,-1.42111 0.625,-1.5 z m -341.0625,21.875 c -2.67414,-0.094 -4.90866,0.64843 -6.75,2.1875 -3.03517,2.53677 -2.61818,4.86049 0.71875,4.0625 4.64281,-1.11024 13.4983,1.90887 15.875,5.375 1.71689,2.50394 3.09597,3.0193 6.3125,2.375 2.25801,-0.4523 4.33146,-1.64129 4.59375,-2.65625 0.28756,-1.11313 -2.94283,-3.83826 -8.15625,-6.84375 -4.98761,-2.8753 -9.15557,-4.37921 -12.59375,-4.5 z m 29.0625,10.28125 c -1.66576,0.0991 -3.12771,0.92875 -4.03125,2.46875 -1.1184,1.90612 -1.03621,2.8492 0.40625,5.0625 1.87838,2.8821 3.38454,3.06541 8.53125,1.1875 4.04342,-1.47532 4.20289,-3.87519 0.4375,-6.78125 -1.79682,-1.38675 -3.67799,-2.0366 -5.34375,-1.9375 z m 14.34375,5.21875 c -0.74991,0.061 -1.57993,0.95063 -1.84375,1.96875 -0.28531,1.10118 0.43208,1.76246 1.75,1.65625 0.13775,-0.0111 0.25019,-0.006 0.375,-0.0312 1.07047,-0.22032 1.66756,-0.95645 1.46875,-1.90625 -0.16949,-0.80989 -0.73006,-1.48737 -1.34375,-1.65625 -0.1293,-0.0357 -0.27569,-0.0418 -0.40625,-0.0312 z m -31.8125,2.4375 c -1.25688,0.19235 -2.49983,2.48119 -1.8125,4.0625 0.95016,2.18606 3.61584,1.55314 3.6875,-0.875 0.0333,-1.14302 -0.42736,-2.46302 -1.03125,-2.9375 -0.26739,-0.21009 -0.5537,-0.29439 -0.84375,-0.25 z m 468.53125,47.9375 c -2.76842,0.69202 -3.75013,6.91117 -1.65625,12.03125 0.12587,0.30778 0.27232,0.5923 0.4375,0.84375 0.49323,-4.26779 0.88049,-8.56139 1.21875,-12.875 z m -144.8125,26.90625 c 1.74036,0.10315 1.84285,2.06319 0.28125,5.59375 -1.36639,3.08929 -3.04303,3.23413 -3.84375,0.34375 -0.68445,-2.47071 1.46661,-6.06173 3.5625,-5.9375 z m 48.375,50.25 c -0.89306,-0.0545 -2.90211,2.18043 -4.46875,4.96875 -1.76652,3.14395 -4.44603,5.77336 -7.03125,6.90625 -5.15111,2.25736 -6.70535,5.47015 -5.90625,12.25 0.445,3.77526 0.11347,6.18027 -1.21875,8.59375 -2.03259,3.68235 -1.60509,9.78855 1.0625,15.21875 1.84394,3.75369 6.69398,4.31086 9.875,1.15625 1.05914,-1.05027 3.48588,-8.12367 5.8125,-16.09375 2.32671,-7.97008 4.55479,-16.83716 5.15625,-21.46875 0.6519,-5.02048 -1.15883,-11.40184 -3.28125,-11.53125 z m -323.375,147.46875 c -3.1847,0.0774 -4.3531,1.98198 -1.96875,3.21875 2.06442,1.07087 2.47475,0.95138 3.84375,-1.21875 1.11372,-1.76568 0.84123,-2.06603 -1.875,-2 z m -11.4375,53.9375 c -1.04745,-0.0547 -2.3059,0.41977 -2.8125,1.46875 -0.38629,0.79996 -2.80641,2.79269 -5.375,4.4375 -1.47483,0.9444 -2.50085,1.69191 -3.21875,2.4375 -1.1888,1.23515 -1.5166,2.45973 -1.59375,4.5625 -0.0957,2.60638 -0.89477,4.57035 -2.3125,5.59375 -0.72842,0.52578 -1.45764,1.06764 -2.1875,1.59375 0.65498,1.57125 1.28253,3.14046 1.9375,4.71875 6.05321,1.92418 12.1825,3.69041 18.375,5.28125 -0.0592,-0.37035 -0.13296,-0.74939 -0.21875,-1.125 -1.87514,-8.20963 -3.35785,-10.62358 -7.4375,-12.25 -2.24371,-0.89452 -4.06371,-2.36169 -4.03125,-3.28125 0.0746,-2.12359 2.97285,-5.44541 6.9375,-8 1.69756,-1.09386 3.2722,-2.78373 3.53125,-3.75 0.28459,-1.0613 -0.5463,-1.63283 -1.59375,-1.6875 z m -25.21875,17.4375 c -1.00432,0.27488 -1.7109,1.66123 -2.09375,3.4375 2.93002,1.05058 5.87778,2.05905 8.84375,3.03125 -1.58012,-3.10974 -5.17867,-6.89882 -6.75,-6.46875 z m 182.1875,8.03125 c -1.68745,0.20062 -3.46508,1.51068 -5.78125,4.09375 -0.84747,0.94505 -3.68749,2.63078 -6.28125,3.71875 -1.94526,0.81599 -4.19549,2.3072 -5.75,3.75 17.02343,-2.55344 33.63577,-6.37382 49.75,-11.34375 -2.33298,0.42344 -4.65068,0.68463 -6,0.59375 -2.05111,-0.13818 -6.85408,-0.48037 -10.65625,-0.75 -3.80226,-0.26962 -7.49761,0.17072 -8.21875,0.96875 -0.89288,0.98804 -2.17391,0.91802 -4.03125,-0.21875 -1.04307,-0.63838 -2.01878,-0.93287 -3.03125,-0.8125 z"
         style="fill:#17d366;fill-opacity:0.73972599;stroke:#202424;stroke-width:5.54400015;stroke-miterlimit:4;stroke-opacity:1;stroke-dasharray:none" />
      <path
         inkscape:connector-curvature="0"
         style="fill:#ffffff;fill-opacity:0.913242;stroke:none;filter:url(#filter4175)"
         d="m 602.73236,270.61662 c 0,37.87095 -58.8426,68.57143 -131.4286,68.57143 -72.586,0 -131.4286,-30.70048 -131.4286,-68.57143 0,-37.87094 58.8426,-68.57142 131.4286,-68.57142 72.586,0 131.4286,30.70048 131.4286,68.57142 z"
         id="path3757" />
      <g
         transform="translate(1503.107,472.75139)"
         id="g4599">
        <path
           style="fill:#ccd258;fill-opacity:0;stroke:#000000;stroke-width:2.14599991;stroke-linecap:butt;stroke-linejoin:miter;stroke-miterlimit:4;stroke-opacity:1;stroke-dasharray:none;display:inline;filter:url(#filter4298-0-5)"
           d="m -987.9215,-115.07651 c -299.3044,-64.40773 -335.386,57.939868 -335.386,57.939868"
           id="path4208-2-7-7"
           inkscape:connector-curvature="0"
           sodipodi:nodetypes="cc" />
        <path
           style="fill:#ccd258;fill-opacity:0;stroke:#fef8f8;stroke-width:6.90899992;stroke-linecap:butt;stroke-linejoin:miter;stroke-miterlimit:4;stroke-opacity:1;stroke-dasharray:none;display:inline"
           d="m -986.0142,-115.32311 c -293.3158,-148.17244 -339.6907,55.540898 -339.6907,55.540898"
           id="path4208-4-8"
           inkscape:connector-curvature="0"
           sodipodi:nodetypes="cc" />
        <g
           transform="matrix(0.8888242,0,0,0.74372798,-529.27757,218.61658)"
           style="display:inline"
           id="g4327-0-3-9">
          <path
             inkscape:connector-curvature="0"
             id="path4304-7-8-5"
             d="m -519.21463,-457.8125 c -7.53023,0 -13.62912,6.56207 -13.62912,14.65511 0,1.78153 0.31285,3.4741 0.85456,5.05349 l 25.54913,0 c 0.5417,-1.57939 0.85456,-3.27196 0.85456,-5.05349 0,-8.09304 -6.0989,-14.65511 -13.62913,-14.65511 z"
             style="fill:#dcdc32;fill-opacity:1;stroke:#000000;stroke-width:0;stroke-miterlimit:4;stroke-opacity:1;stroke-dasharray:none" />
          <path
             d="m -511.64225,-450.61853 c 0,1.18552 -1.24371,2.14657 -2.77792,2.14657 -1.5342,0 -2.77792,-0.96105 -2.77792,-2.14657 0,-1.18552 1.24372,-2.14657 2.77792,-2.14657 1.53421,0 2.77792,0.96105 2.77792,2.14657 z"
             sodipodi:ry="2.1465743"
             sodipodi:rx="2.7779195"
             sodipodi:cy="-450.61853"
             sodipodi:cx="-514.42017"
             id="path4313-7-6-2"
             style="fill:#fefefe;fill-opacity:1;stroke:#000000;stroke-width:0;stroke-miterlimit:4;stroke-opacity:1;stroke-dasharray:none;filter:url(#filter4323-9-9-0)"
             sodipodi:type="arc" />
        </g>
        <path
           style="fill:#ccd258;fill-opacity:0;stroke:#fef8f8;stroke-width:6.90899992;stroke-linecap:butt;stroke-linejoin:miter;stroke-miterlimit:4;stroke-opacity:1;stroke-dasharray:none;display:inline"
           d="m -1196.126,137.21502 c -56.9402,-233.025254 -125.5384,-196.997244 -125.5384,-196.997244"
           id="path4208-4-4"
           inkscape:connector-curvature="0"
           sodipodi:nodetypes="cc" />
        <g
           style="display:inline"
           id="g4327-1-3"
           transform="matrix(0.81470701,0,0,0.69247358,-902.11702,246.4256)">
          <path
             inkscape:connector-curvature="0"
             id="path4304-6-6"
             d="m -519.21463,-457.8125 c -7.53023,0 -13.62912,6.56207 -13.62912,14.65511 0,1.78153 0.31285,3.4741 0.85456,5.05349 l 25.54913,0 c 0.5417,-1.57939 0.85456,-3.27196 0.85456,-5.05349 0,-8.09304 -6.0989,-14.65511 -13.62913,-14.65511 z"
             style="fill:#dcdc32;fill-opacity:1;stroke:#000000;stroke-width:0;stroke-miterlimit:4;stroke-opacity:1;stroke-dasharray:none" />
          <path
             d="m -511.64225,-450.61853 c 0,1.18552 -1.24371,2.14657 -2.77792,2.14657 -1.5342,0 -2.77792,-0.96105 -2.77792,-2.14657 0,-1.18552 1.24372,-2.14657 2.77792,-2.14657 1.53421,0 2.77792,0.96105 2.77792,2.14657 z"
             sodipodi:ry="2.1465743"
             sodipodi:rx="2.7779195"
             sodipodi:cy="-450.61853"
             sodipodi:cx="-514.42017"
             id="path4313-2-2"
             style="fill:#fefefe;fill-opacity:1;stroke:#000000;stroke-width:0;stroke-miterlimit:4;stroke-opacity:1;stroke-dasharray:none;filter:url(#filter4323-7-3)"
             sodipodi:type="arc" />
        </g>
        <g
           transform="matrix(0.8888242,0,0,0.74372798,-737.369,469.13441)"
           style="display:inline"
           id="g4327-0-3-3">
          <path
             inkscape:connector-curvature="0"
             id="path4304-7-8-1"
             d="m -519.21463,-457.8125 c -7.53023,0 -13.62912,6.56207 -13.62912,14.65511 0,1.78153 0.31285,3.4741 0.85456,5.05349 l 25.54913,0 c 0.5417,-1.57939 0.85456,-3.27196 0.85456,-5.05349 0,-8.09304 -6.0989,-14.65511 -13.62913,-14.65511 z"
             style="fill:#dcdc32;fill-opacity:1;stroke:#000000;stroke-width:0;stroke-miterlimit:4;stroke-opacity:1;stroke-dasharray:none" />
          <path
             d="m -511.64225,-450.61853 c 0,1.18552 -1.24371,2.14657 -2.77792,2.14657 -1.5342,0 -2.77792,-0.96105 -2.77792,-2.14657 0,-1.18552 1.24372,-2.14657 2.77792,-2.14657 1.53421,0 2.77792,0.96105 2.77792,2.14657 z"
             sodipodi:ry="2.1465743"
             sodipodi:rx="2.7779195"
             sodipodi:cy="-450.61853"
             sodipodi:cx="-514.42017"
             id="path4313-7-6-9"
             style="fill:#fefefe;fill-opacity:1;stroke:#000000;stroke-width:0;stroke-miterlimit:4;stroke-opacity:1;stroke-dasharray:none;filter:url(#filter4323-9-9-6)"
             sodipodi:type="arc" />
        </g>
        <path
           style="fill:#ccd258;fill-opacity:0;stroke:#000000;stroke-width:3;stroke-linecap:butt;stroke-linejoin:miter;stroke-miterlimit:4;stroke-opacity:1;stroke-dasharray:none;display:inline;filter:url(#filter4562)"
           d="M -1209.3755,130.23887 C -1246.5341,-9.1413361 -1316.0058,-60.448854 -1316.0058,-60.448854"
           id="path4208-4-4-0"
           inkscape:connector-curvature="0"
           sodipodi:nodetypes="cc" />
      </g>
    </g>
  </g>
</svg>
