<?xml version="1.0" encoding="UTF-8" standalone="no"?>
<!-- Created with Inkscape (http://www.inkscape.org/) -->

<svg
   xmlns:dc="http://purl.org/dc/elements/1.1/"
   xmlns:cc="http://creativecommons.org/ns#"
   xmlns:rdf="http://www.w3.org/1999/02/22-rdf-syntax-ns#"
   xmlns:svg="http://www.w3.org/2000/svg"
   xmlns="http://www.w3.org/2000/svg"
   xmlns:sodipodi="http://sodipodi.sourceforge.net/DTD/sodipodi-0.dtd"
   xmlns:inkscape="http://www.inkscape.org/namespaces/inkscape"
   width="50mm"
   height="50mm"
   viewBox="0 0 177.16535 177.16535"
   id="svg2"
   version="1.1"
   inkscape:version="0.91 r13725"
   sodipodi:docname="previous.svg">
  <defs
     id="defs4" />
  <sodipodi:namedview
     id="base"
     pagecolor="#ffffff"
     bordercolor="#666666"
     borderopacity="1.0"
     inkscape:pageopacity="0.0"
     inkscape:pageshadow="2"
     inkscape:zoom="3.959798"
     inkscape:cx="61.876102"
     inkscape:cy="101.4843"
     inkscape:document-units="px"
     inkscape:current-layer="layer1"
     showgrid="false"
     inkscape:window-width="1920"
     inkscape:window-height="1056"
     inkscape:window-x="0"
     inkscape:window-y="24"
     inkscape:window-maximized="1" />
  <metadata
     id="metadata7">
    <rdf:RDF>
      <cc:Work
         rdf:about="">
        <dc:format>image/svg+xml</dc:format>
        <dc:type
           rdf:resource="http://purl.org/dc/dcmitype/StillImage" />
        <dc:title></dc:title>
      </cc:Work>
    </rdf:RDF>
  </metadata>
  <g
     inkscape:label="Layer 1"
     inkscape:groupmode="layer"
     id="layer1"
     transform="translate(0,-875.19685)">
    <path
       style="fill:#1a1a1a"
       d="m 103.34475,899.64086 c -0.54339,-0.0492 -1.10589,0.0748 -1.61888,0.39524 l -81.221502,50.74967 -18.7154169,11.34234 20.2017799,12.75918 80.214929,51.51031 c 1.35886,0.8726 3.08502,0.3598 3.87025,-1.1503 l 7.58279,-14.5861 c 0.78522,-1.5102 0.32377,-3.4283 -1.03508,-4.301 L 44.284491,962.47486 111.93244,920.20771 c 1.36802,-0.85477 1.84954,-2.76764 1.08038,-4.28787 l -7.42846,-14.68128 c -0.48073,-0.95015 -1.33395,-1.5158 -2.23961,-1.5977 z"
       id="rect3336"
       inkscape:connector-curvature="0" />
    <path
       style="fill:#1a1a1a"
       d="m 164.62759,900.13554 c -0.54339,-0.0492 -1.10589,0.0748 -1.61888,0.39524 l -81.221495,50.74966 -18.715416,11.34234 20.201776,12.75918 80.214925,51.51034 c 1.35886,0.8726 3.08502,0.3598 3.87025,-1.1503 l 7.58279,-14.5861 c 0.78522,-1.5102 0.32377,-3.4284 -1.03508,-4.301 l -68.33912,-43.88537 67.64794,-42.26715 c 1.36802,-0.85477 1.84954,-2.76764 1.08038,-4.28787 l -7.42846,-14.68127 c -0.48073,-0.95015 -1.33395,-1.5158 -2.23961,-1.5977 z"
       id="rect3336-3"
       inkscape:connector-curvature="0" />
  </g>
</svg>
